<?xml version="1.0" encoding="UTF-8"?>
<svg width="256px" height="256px" viewBox="0 0 256 256" version="1.1" xmlns="http://www.w3.org/2000/svg" xmlns:xlink="http://www.w3.org/1999/xlink" preserveAspectRatio="xMidYMid">
    <g>
        <path d="M128,0 C57.3075821,0 0,57.3075821 0,128 C0,198.692418 57.3075821,256 128,256 C198.692418,256 256,198.692418 256,128 C256,57.3075821 198.692418,0 128,0 Z" fill="#2496ED"></path>
        <path d="M64,96 C64,96 80,96 96,96 C112,96 112,80 128,80 C144,80 144,96 160,96 C176,96 192,96 192,96 C192,96 192,112 192,128 C192,144 192,160 192,160 C192,160 176,160 160,160 C144,160 144,176 128,176 C112,176 112,160 96,160 C80,160 64,160 64,160 C64,160 64,144 64,128 C64,112 64,96 64,96 Z" fill="#FFFFFF"></path>
        <path d="M96,96 C96,96 112,96 128,96 C144,96 144,80 160,80 C176,80 176,96 192,96 C208,96 224,96 224,96 C224,96 224,112 224,128 C224,144 224,160 224,160 C224,160 208,160 192,160 C176,160 176,176 160,176 C144,176 144,160 128,160 C112,160 96,160 96,160 C96,160 96,144 96,128 C96,112 96,96 96,96 Z" fill="#FFFFFF"></path>
    </g>
</svg> 