<svg xmlns="http://www.w3.org/2000/svg" viewBox="0 0 512 512">
  <path fill="#F05032" d="M503.6 228.5L283.4 8.3c-12.6-12.6-33-12.6-45.6 0l-45.7 45.7 57.6 57.6c13.4-4.5 28.7-1.5 39.4 9.2 10.7 10.7 13.8 26.1 9.2 39.5l55.5 55.5c13.4-4.6 28.8-1.6 39.5 9.2 15 15 15 39.2 0 54.2s-39.2 15-54.2 0c-11.3-11.3-14.1-27.8-8.4-41.7l-51.8-51.8v136.2c3.7 1.8 7.1 4.2 10.2 7.2 15 15 15 39.2 0 54.2s-39.2 15-54.2 0c-15-15-15-39.2 0-54.2 3.7-3.7 8-6.5 12.5-8.4V180.4c-4.5-1.9-8.8-4.7-12.5-8.4-11.4-11.4-14.1-28.1-8.2-42.1L173.7 72 8.4 237.3c-12.6 12.6-12.6 33 0 45.6l220.2 220.2c12.6 12.6 33 12.6 45.6 0l219.4-219.4c12.6-12.6 12.6-33 0-45.6"/>
</svg> 