<?xml version="1.0" encoding="UTF-8"?>
<svg width="256px" height="256px" viewBox="0 0 256 256" version="1.1" xmlns="http://www.w3.org/2000/svg" xmlns:xlink="http://www.w3.org/1999/xlink" preserveAspectRatio="xMidYMid">
    <g>
        <path d="M128,0 C57.3075821,0 0,57.3075821 0,128 C0,198.692418 57.3075821,256 128,256 C198.692418,256 256,198.692418 256,128 C256,57.3075821 198.692418,0 128,0 Z" fill="#007396"></path>
        <path d="M96,64 L160,64 L160,192 L96,192 L96,64 Z" fill="#FFFFFF"></path>
        <path d="M96,64 L160,64 L160,96 L96,96 L96,64 Z" fill="#007396"></path>
        <path d="M96,160 L160,160 L160,192 L96,192 L96,160 Z" fill="#007396"></path>
        <path d="M96,96 L160,96 L160,128 L96,128 L96,96 Z" fill="#007396"></path>
        <path d="M96,128 L160,128 L160,160 L96,160 L96,128 Z" fill="#007396"></path>
        <path d="M160,96 L192,96 L192,128 L160,128 L160,96 Z" fill="#007396"></path>
        <path d="M160,128 L192,128 L192,160 L160,160 L160,128 Z" fill="#007396"></path>
        <path d="M160,160 L192,160 L192,192 L160,192 L160,160 Z" fill="#007396"></path>
        <path d="M64,96 L96,96 L96,128 L64,128 L64,96 Z" fill="#007396"></path>
        <path d="M64,128 L96,128 L96,160 L64,160 L64,128 Z" fill="#007396"></path>
        <path d="M64,160 L96,160 L96,192 L64,192 L64,160 Z" fill="#007396"></path>
    </g>
</svg> 