<?xml version="1.0" encoding="UTF-8"?>
<svg width="256px" height="256px" viewBox="0 0 256 256" version="1.1" xmlns="http://www.w3.org/2000/svg" xmlns:xlink="http://www.w3.org/1999/xlink" preserveAspectRatio="xMidYMid">
    <g>
        <path d="M128,0 C57.3075821,0 0,57.3075821 0,128 C0,198.692418 57.3075821,256 128,256 C198.692418,256 256,198.692418 256,128 C256,57.3075821 198.692418,0 128,0 Z" fill="#47A248"></path>
        <path d="M128,48 C89.0666667,48 56,81.0666667 56,120 C56,158.933333 89.0666667,192 128,192 C166.933333,192 200,158.933333 200,120 C200,81.0666667 166.933333,48 128,48 Z" fill="#FFFFFF"></path>
        <path d="M128,144 C106.4,144 88,125.6 88,104 C88,82.4 106.4,64 128,64 C149.6,64 168,82.4 168,104 C168,125.6 149.6,144 128,144 Z" fill="#47A248"></path>
        <path d="M128,96 C128,96 144,96 160,96 C176,96 176,80 192,80 C208,80 208,96 224,96 C240,96 256,96 256,96 C256,96 256,112 256,128 C256,144 256,160 256,160 C256,160 240,160 224,160 C208,160 208,176 192,176 C176,176 176,160 160,160 C144,160 128,160 128,160 C128,160 128,144 128,128 C128,112 128,96 128,96 Z" fill="#47A248"></path>
    </g>
</svg> 