<svg xmlns="http://www.w3.org/2000/svg" viewBox="0 0 512 512">
  <path fill="#539E43" d="M255.917 480c-4.78 0-9.562-1.262-13.75-3.787l-43.748-25.89c-6.532-3.658-3.346-4.949-1.192-5.697 8.717-3.03 10.47-3.726 19.755-9.006.97-.545 2.246-.342 3.24.278l33.622 19.948c1.215.672 2.93.672 4.044 0l131.096-75.676c1.214-.674 1.987-2.02 1.987-3.41V225.068c0-1.417-.773-2.735-1.987-3.435L257.887 145.93c-1.214-.673-2.83-.673-4.044 0L122.747 221.633c-1.243.7-2.016 2.047-2.016 3.435v151.692c0 1.39.773 2.707 2.016 3.38l35.903 20.75c19.467 9.736 31.374-1.73 31.374-13.253V238.457c0-2.117 1.69-3.76 3.807-3.76h16.618c2.088 0 3.807 1.643 3.807 3.76v151.18c0 25.95-14.142 40.846-38.756 40.846-7.566 0-13.535 0-30.152-8.19l-34.32-19.78c-8.49-4.894-13.75-14.083-13.75-23.873V225.068c0-9.79 5.26-18.95 13.75-23.844l131.096-75.705c8.29-4.675 19.324-4.675 27.585 0l131.096 75.705c8.49 4.894 13.78 14.054 13.78 23.844v151.692c0 9.79-5.29 18.92-13.78 23.873l-131.096 75.676c-4.188 2.525-8.97 3.787-13.75 3.787zm40.846-104.354c-57.404 0-69.324-26.338-69.324-48.457 0-2.117 1.69-3.76 3.807-3.76h16.94c1.897 0 3.485 1.39 3.777 3.258 2.567 17.34 10.25 26.077 44.8 26.077 27.556 0 39.284-6.238 39.284-20.895 0-8.44-3.318-14.678-46.17-18.897-35.815-3.56-57.976-11.462-57.976-40.144 0-26.455 22.34-42.22 59.826-42.22 42.07 0 62.896 14.595 65.462 45.91.097 1.09-.292 2.145-1.067 2.932-.773.815-1.867 1.262-2.97 1.262h-16.97c-1.77 0-3.347-1.262-3.71-3.03-4.104-18.284-14.142-24.13-40.745-24.13-30.007 0-33.486 10.445-33.486 18.284 0 9.493 4.104 12.27 44.77 17.633 40.23 5.336 59.347 12.904 59.347 41.214-.03 28.572-23.796 44.963-65.495 44.963z"/>
</svg> 