<svg xmlns="http://www.w3.org/2000/svg" viewBox="0 0 512 512">
  <path fill="#FFD43B" d="M254.5 31c-11.5 0-22.5 1-32.2 2.9l.1-.1c-26 5.1-30.7 15.7-30.7 35.4v26h61.4v8.7h-84.4c-19.8 0-37.1 11.8-42.5 34.4-6.2 25.8-6.5 41.9 0 68.8 4.8 20 16.2 34.4 36 34.4h23.3v-31c0-22.4 19.4-42.2 42.5-42.2h61.3c18.9 0 34.1-15.5 34.1-34.4V69.2c0-18.3-15.5-32.1-34.1-35.2-11.7-2-23.9-3-44.8-3zm-33.5 20.4c6.3 0 11.5 5.2 11.5 11.7s-5.2 11.7-11.5 11.7c-6.4 0-11.5-5.2-11.5-11.7s5.2-11.7 11.5-11.7z"/>
  <path fill="#3776AB" d="M289.1 104.5v30.1c0 23.3-19.8 42.9-42.5 42.9h-61.3c-18.6 0-34.1 15.9-34.1 34.4v64.5c0 18.3 16 29.1 34.1 34.4 21.6 6.3 42.4 7.4 61.3 0 12.6-4.9 34.1-14.8 34.1-34.4v-26h-61.3v-8.7h91.9c19.8 0 27.2-13.8 34.1-34.4 7.1-21.3 6.8-41.7 0-68.8-4.9-19.6-14.3-34.4-34.1-34.4h-21.2zm-34.6 164.5c6.4 0 11.5 5.2 11.5 11.7s-5.2 11.7-11.5 11.7c-6.3 0-11.5-5.2-11.5-11.7s5.2-11.7 11.5-11.7z"/>
</svg> 