<svg xmlns="http://www.w3.org/2000/svg" viewBox="0 0 512 512">
  <rect width="512" height="512" rx="50" fill="#3178c6"/>
  <path fill="#fff" d="M317 407v50c8.1 4.2 18 7.3 29 9.4s23 3.1 35 3.1c12 0 23-1.1 34-3.4 11-2.3 20-6.1 28-11.4 8.1-5.3 15-12.2 19-20.7 4.7-8.4 7-18.9 7-31.4 0-9-1.3-17.1-4-24.1-2.7-7-6.6-13.3-12-18.9-5.2-5.6-12-10.7-19-15.4-7.3-4.7-16-9.2-25-13.7l-20-9.1c-5.8-2.8-11-5.5-15-8.4-4.4-2.8-8.1-5.8-11-9-2.9-3.1-5.1-6.6-6.6-10.3-1.5-3.7-2.3-8.1-2.3-13.1 0-9.4 3.4-17.3 10-23.7 6.8-6.3 17-9.5 31-9.5 5.1 0 10 .5 15 1.6s9.7 2.5 14 4.3c4.4 1.8 8.5 3.9 12 6.2 3.8 2.3 6.9 4.7 9.4 7.1v-47c-7.6-2.9-16-5.2-25-6.8s-19-2.4-31-2.4c-12 0-23 1.3-34 3.8-11 2.6-20 6.5-28 11.9-8.1 5.3-14 12.2-19 20.7-4.7 8.4-7 18.6-7 30.7 0 15.2 3.4 28.2 10 38.9 6.8 10.7 18 20.1 33 28.3l28 13.4c6.8 3.4 13 6.6 18 9.8 5.2 3.2 9.5 6.5 13 10 3.4 3.4 6 7.1 7.7 11 1.7 4 2.6 8.6 2.6 14 0 4.4-.7 8.6-2 12.6-1.4 4-3.6 7.5-6.6 10.6-3.1 3.1-7.1 5.5-12 7.4-4.9 1.8-11 2.8-18 2.8-13 0-25-2.3-35-6.8-11-4.6-21-10.9-29-19.1zm-84-123h64v-41H118v41h64v183h51z"/>
</svg> 